<?xml version="1.0" standalone="no"?>
<!DOCTYPE svg PUBLIC "-//W3C//DTD SVG 20010904//EN"
 "http://www.w3.org/TR/2001/REC-SVG-20010904/DTD/svg10.dtd">
<svg version="1.0" xmlns="http://www.w3.org/2000/svg"
 width="32.000000pt" height="32.000000pt" viewBox="0 0 32.000000 32.000000"
 preserveAspectRatio="xMidYMid meet">
<title>Datarist</title>
<g transform="translate(0.000000,32.000000) scale(0.100000,-0.100000)"
fill="#000000" stroke="none">
<path d="M128 273 c6 -2 12 -19 12 -37 0 -30 -2 -32 -29 -28 -54 8 -83 -76
-40 -119 14 -14 26 -18 42 -13 12 4 38 7 57 6 19 0 29 1 23 4 -9 4 -13 34 -13
100 l0 94 -32 -1 c-18 0 -27 -3 -20 -6z m11 -105 c12 -33 -2 -73 -25 -73 -14
0 -20 8 -22 33 -2 19 -1 40 2 48 8 22 36 17 45 -8z"/>
<path d="M223 104 c-8 -22 18 -37 36 -20 7 8 10 19 7 25 -10 16 -36 13 -43 -5z"/>
</g>
</svg>
