<?xml version="1.0" encoding="UTF-8"?>
<svg version="1.1" viewBox="0 0 2048 1942" width="174" height="165" xmlns="http://www.w3.org/2000/svg">
<path transform="translate(1e3 19)" d="m0 0h257l2 1v1761h185l1 1v56l-1 52-3 1-368 1h-136l-2-3-5-48-5-61-4-50-4-41-5 3-7 19-10 20-13 23-8 12-10 14-12 16-12 14-24 24-10 8-12 9-24 16-16 9-21 11-32 13-19 6-30 8-38 7-33 4-44 3h-29l-46-3-28-3-31-5-31-7-30-9-20-7-26-11-21-10-24-14-19-13-19-14-15-13-16-15-15-15-7-8-9-10-11-14-9-12-16-24-9-15-12-22-12-25-12-29-12-34-11-39-11-52-5-33-6-52-3-36-1-19v-88l3-42 6-53 5-35 8-40 10-39 12-38 9-25 12-28 14-29 12-22 10-17 10-15 13-18 8-11 8-10 11-13 11-12 9-10 17-17 8-7 13-11 14-11 18-13 12-8 21-13 24-13 30-14 34-13 29-9 24-6 42-8 23-3 25-2 20-1h48l42 3 27 4 23 5 25 7 20 7 20 9 21 11 16 10 11 8 14 11 11 10 8 7 12 12 7 8 11 13 12 16 13 20 8 10 2 1-3-26-4-74-2-59-1-553-209-1-3-2-1-11v-73l1-23 2-1zm-379 803-26 4-20 6-17 8-15 9-13 10-14 12-7 8-8 9-11 15-9 15-13 24-11 25-9 24-10 34-6 25-9 46-5 35-5 47-3 44-2 51v95l2 49 4 52 8 64 7 36 7 30 10 33 11 28 12 25 9 15 9 13 8 10 11 12 13 11 15 10 19 10 21 7 18 3 11 1h24l23-2 20-4 21-7 16-7 21-12 14-10 10-8 12-11 18-18 7-8 13-17 12-19 11-19 9-17 13-29 11-30 12-40 9-38 8-46 5-38 4-53 2-50v-26l-2-45-4-48-6-46-8-42-10-38-12-37-14-34-11-22-14-24-10-15-13-17-12-14-14-13-17-13-15-10-23-12-18-7-26-6-22-3z" fill="#232729"/>
<path transform="translate(1799,1485)" d="m0 0h24l31 3 22 5 21 8 16 8 14 8 19 13 10 8 13 11 11 12 10 13 14 21 9 16 9 21 7 23 5 24 2 17v23l-3 21-7 30-6 18-11 23-11 18-11 15-11 13-7 8-22 18-21 14-16 9-21 9-23 7-21 4-19 2h-26l-27-3-23-5-20-7-21-10-19-12-19-14-13-12-12-12-11-14-12-18-11-19-8-17-8-24-5-25-1-10v-40l4-24 4-15 7-21 9-19 16-25 13-18 15-16 12-11 13-10 15-10 21-12 19-8 16-5 25-5z" fill="#232729"/>
</svg>
